<?xml version="1.0" encoding="utf-8"?>
<!-- Generator: Adobe Illustrator 23.1.1, SVG Export Plug-In . SVG Version: 6.00 Build 0)  -->
<svg version="1.1" xmlns="http://www.w3.org/2000/svg" xmlns:xlink="http://www.w3.org/1999/xlink" x="0px" y="0px"
	 viewBox="0 0 76.5 101.5" style="enable-background:new 0 0 76.5 101.5;" xml:space="preserve">
<style type="text/css">
	.st0{fill:#7B7C7F;}
</style>
<g id="Layer_2">
</g>
<g id="Layer_1">
	<g>
		<path d="M5260.9,2400.1v-2c0-2.8-5-4-9.7-4s-9.7,1.3-9.7,4v2c0,1.8,0.7,3.6,2,4.9l5,4.9c0.3,0.3,0.4,0.6,0.4,1v6.4
			c0,0.4,0.2,0.7,0.6,0.8l2.9,0.9c0.5,0.1,1-0.2,1-0.8v-7.2c0-0.4,0.2-0.7,0.4-1l5.1-5C5260.2,2403.7,5260.9,2401.9,5260.9,2400.1z
			 M5251.2,2400c-4.8,0-7.4-1.3-7.5-1.8l0,0c0.1-0.5,2.7-1.8,7.5-1.8s7.3,1.3,7.5,1.8C5258.5,2398.7,5256,2400,5251.2,2400z"/>
		<path d="M5256.2,2410.3c-0.6,0-1,0.4-1,1s0.4,1,1,1h4.3c0.6,0,1-0.4,1-1s-0.4-1-1-1H5256.2z"/>
		<path d="M5260.5,2413.7h-4.3c-0.6,0-1,0.4-1,1s0.4,1,1,1h4.3c0.6,0,1-0.4,1-1C5261.5,2414.1,5261.1,2413.7,5260.5,2413.7z"/>
		<path d="M5260.5,2417h-4.3c-0.6,0-1,0.4-1,1s0.4,1,1,1h4.3c0.6,0,1-0.4,1-1C5261.5,2417.5,5261.1,2417,5260.5,2417z"/>
	</g>
	<g>
		<path class="st0" d="M37.8,2.5c-13.2,0-23.9,10.7-23.9,23.9v22.7c0,9.8,6,18.3,14.5,22v-7.7c-4.6-3.1-7.7-8.3-7.7-14.3V26.4
			c0-9.4,7.7-17.1,17.1-17.1c9.5,0,17.1,7.7,17.1,17.1v22.7c0,6-3.1,11.2-7.7,14.3v7.7c8.5-3.7,14.5-12.1,14.5-22V26.4
			C61.7,13.2,51,2.5,37.8,2.5z"/>
		<path class="st0" d="M37.8,32.7c1.9,0,3.4-1.5,3.4-3.4v-9.2c0-1.9-1.5-3.4-3.4-3.4s-3.4,1.5-3.4,3.4v9.2
			C34.4,31.1,35.9,32.7,37.8,32.7z"/>
		<path class="st0" d="M46.9,80.3L41.2,86V56.1c0-1.9-1.5-3.4-3.4-3.4s-3.4,1.5-3.4,3.4v29.8l-5.7-5.7c-1.3-1.3-3.5-1.3-4.8,0
			s-1.3,3.5,0,4.8l11.5,11.5c0.7,0.7,1.5,1,2.4,1s1.7-0.3,2.4-1L51.7,85c1.3-1.3,1.3-3.5,0-4.8C50.3,78.9,48.2,78.9,46.9,80.3z"/>
	</g>
	<text transform="matrix(1 0 0 1 -79.6457 128.7598)" style="font-family:'HelveticaNeue-Bold'; font-size:5px;">Created by Adrien Coquet</text>
	<text transform="matrix(1 0 0 1 -79.6457 133.7598)" style="font-family:'HelveticaNeue-Bold'; font-size:5px;">from the Noun Project</text>
</g>
</svg>
